<svg xmlns="http://www.w3.org/2000/svg" width="1956" height="1876" viewBox="0 0 19560 18760">
  <g id="l68zslFRnnruYPnycfNZM6M" fill="rgb(252,252,250)" style="transform: none;">
    <g>
      <path id="p1FtZd5U3"
        d="M6745 18503 c-1495 -28 -2533 -182 -3085 -458 -165 -83 -264 -158 -450 -345 -184 -183 -322 -342 -473 -544 -740 -992 -1253 -2373 -1456 -3916 -123 -938 -118 -1955 15 -2819 l25 -163 -22 -24 c-28 -30 -27 -52 11 -239 316 -1529 973 -2647 1917 -3262 63 -41 82 -59 78 -71 -3 -10 -49 -138 -103 -287 l-98 -270 -150 -13 c-555 -46 -1052 -237 -1473 -565 -137 -106 -357 -324 -462 -457 -475 -601 -677 -1380 -553 -2130 9 -52 33 -162 54 -245 125 -491 372 -913 748 -1277 415 -401 901 -639 1507 -735 157 -25 545 -25 705 0 595 94 1132 350 1528 731 l53 51 52 -60 c350 -409 782 -719 1254 -903 776 -303 1629 -290 2393 34 589 251 1114 709 1451 1265 189 314 326 673 394 1038 8 47 17 87 20 89 2 2 91 -1 198 -7 1363 -78 2753 288 3847 1014 336 222 565 410 861 705 296 295 489 528 687 830 41 63 78 118 81 122 3 4 58 20 121 37 793 206 1553 747 2068 1474 156 219 328 527 432 772 299 705 393 1619 259 2530 -118 802 -416 1561 -839 2131 -59 80 -69 99 -84 170 -117 537 -412 1162 -786 1659 -510 679 -1188 1197 -2020 1544 -80 33 -135 61 -124 61 29 0 535 159 708 223 426 156 881 439 1147 713 157 163 242 295 280 440 56 215 -37 374 -266 456 -96 35 -144 42 -595 87 -4453 451 -7718 654 -9855 614z m-941 -12317 c38 -81 67 -148 65 -150 -2 -1 -51 -35 -109 -74 -217 -147 -456 -356 -611 -538 l-72 -84 -66 63 c-216 206 -469 367 -847 538 l-31 14 54 150 c30 83 58 154 62 158 5 5 57 -1 117 -12 274 -51 632 -74 824 -52 142 16 292 51 425 99 61 21 112 38 115 36 3 -1 36 -68 74 -148z">
      </path>
    </g>
  </g>
  <g id="l1EIY9S2xOY3vWgFqFnF78j" fill="rgb(159,167,216)" style="transform: none;">
    <g>
      <path id="pH4QBE1YM"
        d="M6745 18503 c-1495 -28 -2533 -182 -3085 -458 -165 -83 -264 -158 -450 -345 -184 -183 -322 -342 -473 -544 -740 -992 -1253 -2373 -1456 -3916 -123 -938 -118 -1955 15 -2819 l25 -163 -22 -24 c-28 -30 -27 -52 11 -239 316 -1529 973 -2647 1917 -3262 63 -41 82 -59 78 -71 -3 -10 -49 -138 -103 -287 l-98 -270 -150 -13 c-555 -46 -1052 -237 -1473 -565 -137 -106 -357 -324 -462 -457 -475 -601 -677 -1380 -553 -2130 9 -52 33 -162 54 -245 125 -491 372 -913 748 -1277 415 -401 901 -639 1507 -735 157 -25 545 -25 705 0 595 94 1132 350 1528 731 l53 51 52 -60 c350 -409 782 -719 1254 -903 776 -303 1629 -290 2393 34 589 251 1114 709 1451 1265 189 314 326 673 394 1038 8 47 17 87 20 89 2 2 91 -1 198 -7 1363 -78 2753 288 3847 1014 336 222 565 410 861 705 296 295 489 528 687 830 41 63 78 118 81 122 3 4 58 20 121 37 793 206 1553 747 2068 1474 156 219 328 527 432 772 299 705 393 1619 259 2530 -118 802 -416 1561 -839 2131 -59 80 -69 99 -84 170 -117 537 -412 1162 -786 1659 -510 679 -1188 1197 -2020 1544 -80 33 -135 61 -124 61 29 0 535 159 708 223 426 156 881 439 1147 713 157 163 242 295 280 440 56 215 -37 374 -266 456 -96 35 -144 42 -595 87 -4453 451 -7718 654 -9855 614z m-941 -12317 c38 -81 67 -148 65 -150 -2 -1 -51 -35 -109 -74 -217 -147 -456 -356 -611 -538 l-72 -84 -66 63 c-216 206 -469 367 -847 538 l-31 14 54 150 c30 83 58 154 62 158 5 5 57 -1 117 -12 274 -51 632 -74 824 -52 142 16 292 51 425 99 61 21 112 38 115 36 3 -1 36 -68 74 -148z m1372 -417 c658 -64 1248 -426 1627 -999 132 -200 261 -500 315 -735 61 -263 74 -613 33 -881 -72 -479 -288 -913 -626 -1263 l-81 -84 -165 83 c-90 45 -170 87 -177 93 -9 7 14 25 86 66 254 147 465 357 611 609 312 537 299 1217 -33 1744 -155 248 -394 466 -649 595 -113 56 -293 117 -417 140 -144 26 -422 24 -557 -5 -431 -93 -781 -332 -1025 -701 -122 -185 -204 -386 -250 -612 -30 -151 -33 -463 -5 -603 10 -48 16 -90 13 -93 -2 -2 -255 123 -561 279 l-556 283 6 74 c9 111 41 274 75 391 312 1050 1281 1722 2336 1619z m-4241 -350 c269 -33 589 -160 825 -327 106 -76 293 -251 381 -358 118 -144 224 -324 294 -497 l31 -77 -29 -143 c-46 -227 -38 -216 -74 -102 -192 605 -755 1017 -1353 992 -333 -14 -630 -139 -871 -365 -598 -561 -609 -1522 -23 -2106 l91 -91 -18 -29 c-11 -18 -129 -102 -320 -228 -288 -190 -304 -199 -328 -186 -39 20 -255 233 -323 317 -148 183 -256 382 -332 612 -102 307 -130 628 -81 954 112 745 654 1374 1361 1580 234 67 503 86 769 54z">
      </path>
    </g>
  </g>
  <g id="lpA9RaB3BP7DxndTQglgR5" fill="rgb(148,216,42)" style="transform: none;">
    <g>
      <path id="pv87kl2Ee"
        d="M6745 18503 c-1495 -28 -2533 -182 -3085 -458 -165 -83 -264 -158 -450 -345 -184 -183 -322 -342 -473 -544 -740 -992 -1253 -2373 -1456 -3916 -123 -938 -118 -1955 15 -2819 l25 -163 -22 -24 c-28 -30 -27 -52 11 -239 316 -1529 973 -2647 1917 -3262 63 -41 82 -59 78 -71 -3 -10 -49 -138 -103 -287 l-98 -270 -150 -13 c-555 -46 -1052 -237 -1473 -565 -137 -106 -357 -324 -462 -457 -475 -601 -677 -1380 -553 -2130 9 -52 33 -162 54 -245 125 -491 372 -913 748 -1277 415 -401 901 -639 1507 -735 157 -25 545 -25 705 0 595 94 1132 350 1528 731 l53 51 52 -60 c350 -409 782 -719 1254 -903 776 -303 1629 -290 2393 34 589 251 1114 709 1451 1265 189 314 326 673 394 1038 8 47 17 87 20 89 2 2 91 -1 198 -7 1363 -78 2753 288 3847 1014 336 222 565 410 861 705 296 295 489 528 687 830 41 63 78 118 81 122 3 4 58 20 121 37 793 206 1553 747 2068 1474 156 219 328 527 432 772 299 705 393 1619 259 2530 -118 802 -416 1561 -839 2131 -59 80 -69 99 -84 170 -117 537 -412 1162 -786 1659 -510 679 -1188 1197 -2020 1544 -80 33 -135 61 -124 61 29 0 535 159 708 223 426 156 881 439 1147 713 157 163 242 295 280 440 56 215 -37 374 -266 456 -96 35 -144 42 -595 87 -4453 451 -7718 654 -9855 614z m1392 -3479 c133 -63 143 -69 147 -98 3 -17 15 -101 26 -186 12 -85 27 -200 35 -255 8 -55 28 -201 45 -325 33 -246 48 -351 56 -391 5 -26 3 -27 -58 -38 -35 -6 -92 -16 -128 -21 -77 -11 -332 -51 -482 -76 -59 -10 -110 -16 -112 -13 -2 2 6 51 19 109 56 252 215 979 229 1050 6 31 40 186 56 258 6 28 15 52 18 52 4 0 71 -30 149 -66z m883 -6884 c80 -17 159 -33 175 -36 17 -3 71 -14 120 -25 50 -11 111 -24 138 -29 87 -18 142 -30 237 -50 125 -26 260 -54 390 -81 58 -11 142 -30 187 -40 45 -10 92 -19 105 -19 56 -1 56 -10 -17 -167 -37 -81 -101 -219 -141 -307 -40 -87 -75 -161 -78 -163 -5 -6 -89 20 -146 45 -47 21 -1249 577 -1312 607 l-36 18 33 71 c18 39 49 105 68 147 l35 76 49 -8 c26 -4 113 -22 193 -39z m-3216 -1954 c38 -81 67 -148 65 -150 -2 -1 -51 -35 -109 -74 -217 -147 -456 -356 -611 -538 l-72 -84 -66 63 c-216 206 -469 367 -847 538 l-31 14 54 150 c30 83 58 154 62 158 5 5 57 -1 117 -12 274 -51 632 -74 824 -52 142 16 292 51 425 99 61 21 112 38 115 36 3 -1 36 -68 74 -148z m1535 -436 c726 -128 1359 -637 1654 -1330 131 -308 181 -562 181 -915 0 -307 -30 -494 -121 -760 -111 -320 -279 -595 -510 -834 l-102 -106 -175 90 c-97 49 -176 92 -176 95 0 3 42 28 93 57 248 139 469 358 616 611 312 537 299 1217 -33 1744 -155 248 -394 466 -649 595 -113 56 -293 117 -417 140 -144 26 -422 24 -557 -5 -431 -93 -781 -332 -1025 -701 -122 -185 -204 -386 -250 -612 -30 -151 -33 -463 -5 -603 10 -48 16 -91 13 -94 -3 -3 -14 -1 -24 4 -10 5 -260 133 -555 284 l-537 274 0 39 c0 66 30 245 61 364 229 891 977 1563 1869 1678 158 21 490 13 649 -15z m-4484 -320 c570 -54 1073 -360 1404 -854 62 -92 147 -255 185 -352 22 -58 24 -75 16 -104 -9 -29 -59 -287 -60 -308 -1 -4 -18 45 -39 108 -250 750 -1000 1154 -1716 923 -446 -144 -796 -525 -915 -998 -129 -511 17 -1041 388 -1411 87 -86 92 -94 80 -115 -7 -12 -153 -115 -325 -230 l-312 -209 -98 84 c-305 261 -523 614 -624 1013 -85 337 -75 757 27 1083 107 341 271 610 520 850 401 387 922 571 1469 520z">
      </path>
    </g>
  </g>
  <g id="l3UJze6VQxxKCV4m0ERnJG1" fill="rgb(224,136,40)" style="transform: none;">
    <g>
      <path id="p1D0tooMMw"
        d="M14122 16165 c-363 -55 -748 -228 -1052 -471 -105 -83 -259 -239 -331 -334 l-54 -70 -26 77 c-51 153 -134 286 -222 356 -228 182 -505 161 -996 -74 -349 -167 -640 -377 -936 -674 -373 -374 -686 -823 -978 -1402 -62 -123 -114 -223 -117 -223 -3 1 -34 44 -69 96 -117 175 -273 321 -431 403 -129 67 -196 83 -352 86 -76 2 -138 0 -138 -4 0 -4 5 -34 10 -67 6 -32 13 -73 15 -90 l5 -32 -62 -11 c-35 -6 -90 -15 -123 -20 -104 -15 -387 -60 -475 -76 -47 -8 -97 -15 -112 -15 l-26 0 54 -90 c30 -49 54 -92 54 -95 0 -2 -16 -30 -36 -61 -20 -31 -67 -119 -104 -195 -269 -551 -351 -1324 -214 -2009 28 -141 75 -314 110 -409 13 -35 24 -65 24 -66 0 -1 -57 15 -127 36 -161 49 -475 128 -659 165 l-142 28 -21 86 c-43 178 -143 326 -263 391 -57 31 -71 34 -143 34 -67 0 -89 -4 -135 -27 -102 -50 -191 -159 -246 -300 l-28 -70 -101 6 c-329 22 -447 25 -790 26 -488 0 -757 -15 -1192 -66 -674 -79 -1334 -239 -1795 -435 -79 -33 -172 -73 -208 -89 -100 -42 -204 -96 -236 -123 -16 -13 -51 -39 -79 -57 -50 -34 -85 -70 -96 -99 -11 -29 75 -432 151 -710 347 -1269 963 -2215 1797 -2758 63 -41 82 -59 78 -71 -3 -10 -49 -138 -103 -287 l-98 -270 -150 -13 c-555 -46 -1052 -237 -1473 -565 -137 -106 -357 -324 -462 -457 -475 -601 -677 -1380 -553 -2130 9 -52 33 -162 54 -245 125 -491 372 -913 748 -1277 415 -401 901 -639 1507 -735 157 -25 545 -25 705 0 595 94 1132 350 1528 731 l53 51 52 -60 c350 -409 782 -719 1254 -903 776 -303 1629 -290 2393 34 589 251 1114 709 1451 1265 189 314 326 673 394 1038 8 47 17 87 20 89 2 2 91 -1 198 -7 1363 -78 2753 288 3847 1014 336 222 565 410 861 705 296 295 489 528 687 830 41 63 78 118 81 122 3 4 58 20 121 37 793 206 1553 747 2068 1474 156 219 328 527 432 772 299 705 393 1619 259 2530 -118 802 -416 1561 -839 2131 -59 80 -69 99 -84 170 -117 537 -412 1162 -786 1659 -505 672 -1191 1199 -2000 1535 -69 29 -147 62 -175 75 -81 37 -444 152 -551 176 -128 28 -478 36 -622 14z m-9849 -5995 c313 -53 605 -202 826 -420 231 -228 389 -538 431 -847 19 -141 8 -401 -23 -533 -126 -532 -536 -952 -1077 -1100 -130 -36 -248 -50 -412 -50 -266 0 -475 48 -703 161 -418 207 -714 586 -812 1041 -14 65 -18 128 -18 293 0 193 3 219 27 323 141 591 622 1033 1238 1137 122 21 388 18 523 -5z m4747 -2030 c80 -17 159 -33 175 -36 17 -3 71 -14 120 -25 50 -11 111 -24 138 -29 87 -18 142 -30 237 -50 125 -26 260 -54 390 -81 58 -11 142 -30 187 -40 45 -10 92 -19 105 -19 56 -1 56 -10 -17 -167 -37 -81 -101 -219 -141 -307 -40 -87 -75 -161 -78 -163 -5 -6 -89 20 -146 45 -47 21 -1249 577 -1312 607 l-36 18 33 71 c18 39 49 105 68 147 l35 76 49 -8 c26 -4 113 -22 193 -39z m-3216 -1954 c38 -81 67 -148 65 -150 -2 -1 -51 -35 -109 -74 -217 -147 -456 -356 -611 -538 l-72 -84 -66 63 c-216 206 -469 367 -847 538 l-31 14 54 150 c30 83 58 154 62 158 5 5 57 -1 117 -12 274 -51 632 -74 824 -52 142 16 292 51 425 99 61 21 112 38 115 36 3 -1 36 -68 74 -148z m1535 -436 c726 -128 1359 -637 1654 -1330 131 -308 181 -562 181 -915 0 -307 -30 -494 -121 -760 -111 -320 -279 -595 -510 -834 l-102 -106 -175 90 c-97 49 -176 92 -176 95 0 3 42 28 93 57 248 139 469 358 616 611 312 537 299 1217 -33 1744 -155 248 -394 466 -649 595 -113 56 -293 117 -417 140 -144 26 -422 24 -557 -5 -431 -93 -781 -332 -1025 -701 -122 -185 -204 -386 -250 -612 -30 -151 -33 -463 -5 -603 10 -48 16 -91 13 -94 -3 -3 -14 -1 -24 4 -10 5 -260 133 -555 284 l-537 274 0 39 c0 66 30 245 61 364 229 891 977 1563 1869 1678 158 21 490 13 649 -15z m-4484 -320 c570 -54 1073 -360 1404 -854 62 -92 147 -255 185 -352 22 -58 24 -75 16 -104 -9 -29 -59 -287 -60 -308 -1 -4 -18 45 -39 108 -250 750 -1000 1154 -1716 923 -446 -144 -796 -525 -915 -998 -129 -511 17 -1041 388 -1411 87 -86 92 -94 80 -115 -7 -12 -153 -115 -325 -230 l-312 -209 -98 84 c-305 261 -523 614 -624 1013 -85 337 -75 757 27 1083 107 341 271 610 520 850 401 387 922 571 1469 520z">
      </path>
    </g>
  </g>
  <g id="l6dAq1vgI2gzuJav8wZ0OOF" fill="rgb(118,158,42)" style="transform: none;">
    <g>
      <path id="pZQQ9zYrN"
        d="M9575 16925 c-259 -56 -476 -263 -563 -535 -35 -109 -45 -180 -45 -300 1 -190 47 -342 149 -496 323 -487 984 -439 1248 91 75 149 91 223 91 410 0 194 -13 251 -92 414 -50 104 -64 123 -151 211 -83 84 -110 104 -192 144 -148 72 -299 93 -445 61z">
      </path>
      <path id="pTV8n3jqm"
        d="M6778 15511 c-274 -110 -457 -541 -435 -1020 21 -434 196 -778 445 -871 81 -31 184 -25 267 16 333 162 503 822 349 1359 -69 240 -205 434 -354 504 -74 34 -202 40 -272 12z">
      </path>
      <path id="pgjCtR7VM"
        d="M8420 13931 c0 -4 5 -34 10 -67 6 -32 13 -73 15 -90 l5 -32 -62 -11 c-35 -6 -90 -15 -123 -20 -104 -15 -387 -60 -475 -76 -47 -8 -97 -15 -112 -15 l-28 0 45 -67 c25 -37 45 -71 45 -76 0 -4 6 -15 14 -23 13 -12 10 -21 -21 -67 -20 -28 -68 -118 -108 -199 -274 -556 -357 -1328 -219 -2018 28 -141 75 -314 110 -409 13 -35 24 -65 24 -66 0 -1 -57 15 -127 36 -161 49 -475 128 -659 165 l-142 28 -21 86 c-43 178 -143 326 -263 391 -57 31 -71 34 -143 34 -67 0 -89 -4 -135 -27 -102 -50 -191 -159 -246 -300 l-28 -70 -101 6 c-329 22 -447 25 -790 26 -488 0 -757 -15 -1192 -66 -674 -79 -1334 -239 -1795 -435 -79 -33 -172 -73 -208 -89 -100 -42 -204 -96 -236 -123 -16 -13 -51 -39 -79 -57 -50 -34 -85 -70 -96 -99 -11 -29 75 -432 151 -710 347 -1269 963 -2215 1797 -2758 63 -41 82 -59 78 -71 -3 -10 -49 -138 -103 -287 l-98 -270 -150 -13 c-555 -46 -1052 -237 -1473 -565 -137 -106 -357 -324 -462 -457 -475 -601 -677 -1380 -553 -2130 9 -52 33 -162 54 -245 125 -491 372 -913 748 -1277 415 -401 901 -639 1507 -735 157 -25 545 -25 705 0 595 94 1132 350 1528 731 l53 51 52 -60 c86 -101 267 -283 362 -364 778 -670 1838 -915 2838 -656 707 183 1312 598 1762 1210 404 548 628 1320 576 1990 -51 658 -271 1221 -679 1735 -94 118 -349 373 -460 460 -455 356 -917 562 -1466 655 -331 56 -649 59 -976 9 -58 -8 -113 -16 -122 -17 -14 -2 -54 75 -178 338 -88 186 -160 343 -160 348 0 5 38 53 83 106 571 659 1133 1651 1611 2847 80 199 81 205 45 255 -9 12 5 58 69 225 115 298 375 1009 403 1101 2 7 76 -108 163 -255 88 -147 246 -411 351 -587 106 -176 373 -624 595 -995 222 -371 437 -731 478 -800 41 -69 82 -138 92 -155 9 -16 36 -61 60 -100 24 -38 51 -83 60 -100 9 -16 52 -88 95 -160 146 -243 171 -331 123 -437 -55 -120 -171 -193 -323 -204 l-90 -7 -62 -136 c-34 -75 -98 -214 -143 -310 -44 -96 -80 -178 -80 -182 0 -10 27 -19 90 -30 110 -20 147 -23 280 -23 113 0 154 5 253 28 64 15 120 32 123 37 3 5 12 9 20 9 22 0 160 69 227 114 213 141 379 389 433 646 13 59 18 125 17 215 -1 146 -19 246 -63 362 -25 65 -181 337 -378 658 -31 50 -60 99 -66 110 -13 23 -237 398 -484 810 -96 160 -182 304 -192 320 -9 17 -45 77 -80 135 -35 58 -68 114 -74 125 -6 11 -146 245 -310 520 -165 275 -406 678 -536 895 -130 217 -246 413 -259 435 l-22 41 46 124 c61 165 179 448 221 532 18 36 30 68 26 70 -5 2 -37 45 -72 97 -156 229 -360 393 -575 461 -56 18 -97 23 -207 25 -76 2 -138 0 -138 -4z m-4147 -3761 c313 -53 605 -202 826 -420 231 -228 389 -538 431 -847 19 -141 8 -401 -23 -533 -126 -532 -536 -952 -1077 -1100 -130 -36 -248 -50 -412 -50 -266 0 -475 48 -703 161 -418 207 -714 586 -812 1041 -14 65 -18 128 -18 293 0 193 3 219 27 323 141 591 622 1033 1238 1137 122 21 388 18 523 -5z m1605 -3927 c40 -86 71 -157 70 -157 -2 -1 -68 -45 -148 -98 -251 -167 -483 -368 -651 -564 l-72 -84 -66 63 c-216 206 -469 367 -847 538 l-31 14 54 150 c30 83 58 154 62 158 5 5 57 -1 117 -12 275 -51 632 -74 824 -52 240 28 536 117 582 176 11 14 23 25 27 25 4 0 40 -70 79 -157z m1461 -493 c726 -128 1359 -637 1654 -1330 131 -308 181 -562 181 -915 0 -307 -30 -494 -121 -760 -111 -320 -279 -595 -510 -834 l-102 -106 -175 90 c-97 49 -176 92 -176 95 0 3 42 28 93 57 248 139 469 358 616 611 312 537 299 1217 -33 1744 -155 248 -394 466 -649 595 -113 56 -293 117 -417 140 -144 26 -422 24 -557 -5 -431 -93 -781 -332 -1025 -701 -122 -185 -204 -386 -250 -612 -30 -151 -33 -463 -5 -603 10 -48 16 -91 13 -94 -3 -3 -14 -1 -24 4 -10 5 -260 133 -555 284 l-537 274 0 39 c0 66 30 245 61 364 229 891 977 1563 1869 1678 158 21 490 13 649 -15z m-4484 -320 c570 -54 1073 -360 1404 -854 62 -92 147 -255 185 -352 22 -58 24 -75 16 -104 -9 -29 -59 -287 -60 -308 -1 -4 -18 45 -39 108 -250 750 -1000 1154 -1716 923 -446 -144 -796 -525 -915 -998 -129 -511 17 -1041 388 -1411 87 -86 92 -94 80 -115 -7 -12 -153 -115 -325 -230 l-312 -209 -98 84 c-305 261 -523 614 -624 1013 -85 337 -75 757 27 1083 107 341 271 610 520 850 401 387 922 571 1469 520z">
      </path>
      <path id="p1FNwnrlVq"
        d="M2823 9290 c-167 -257 -208 -602 -108 -917 29 -93 120 -274 180 -358 79 -111 203 -213 344 -285 35 -17 137 -52 225 -76 89 -25 187 -53 219 -64 110 -38 445 -22 642 30 261 70 496 207 671 393 158 168 255 356 305 588 31 143 31 387 1 534 -21 105 -52 219 -57 213 -2 -2 -24 -59 -49 -128 -60 -162 -169 -385 -240 -493 -147 -224 -347 -378 -598 -462 -160 -53 -274 -67 -528 -63 l-215 3 -98 47 c-136 66 -230 129 -316 212 -193 187 -291 420 -325 771 l-11 119 -42 -64z">
      </path>
    </g>
  </g>
  <g id="l6Y0ILugwpULVi2lGHSHG25" fill="rgb(147,96,59)" style="transform: none;">
    <g>
      <path id="phLnKKoOy"
        d="M12597 15068 c-494 -800 -853 -1649 -1067 -2523 -342 -1401 -292 -2928 137 -4214 416 -1247 1207 -2261 2123 -2721 785 -394 1624 -433 2374 -109 114 49 125 61 39 42 -187 -40 -332 -55 -573 -60 -339 -7 -547 18 -841 102 -531 153 -1104 529 -1510 993 -353 403 -591 797 -846 1402 -177 418 -254 663 -357 1135 -73 336 -82 380 -111 557 -143 898 -138 1852 16 2788 151 916 376 1805 653 2575 36 99 63 181 61 183 -1 2 -46 -66 -98 -150z">
      </path>
      <path id="pSZPU4ZPX"
        d="M8409 13736 c-2 -2 -51 -11 -109 -20 -164 -24 -633 -99 -638 -101 -1 -1 24 -46 57 -101 32 -54 146 -245 252 -424 106 -179 271 -455 367 -615 96 -159 182 -303 192 -320 9 -16 45 -77 80 -135 34 -58 70 -118 80 -135 9 -16 113 -190 230 -385 398 -666 607 -1015 1010 -1690 222 -371 437 -731 478 -800 41 -69 82 -138 92 -155 9 -16 36 -61 60 -100 24 -38 51 -83 60 -100 9 -16 52 -88 95 -160 146 -243 171 -331 123 -437 -55 -120 -171 -193 -323 -204 l-90 -7 -62 -136 c-34 -75 -98 -214 -143 -310 -44 -96 -80 -178 -80 -182 0 -10 27 -19 90 -30 110 -20 147 -23 280 -23 113 0 154 5 253 28 64 15 120 32 123 37 3 5 12 9 20 9 22 0 160 69 227 114 213 141 379 389 433 646 13 59 18 125 17 215 -1 146 -19 246 -63 362 -25 65 -181 337 -378 658 -31 50 -60 99 -66 110 -13 23 -237 398 -484 810 -96 160 -182 304 -192 320 -9 17 -45 77 -80 135 -35 58 -68 114 -74 125 -6 11 -146 245 -310 520 -669 1117 -748 1250 -894 1495 -517 869 -588 985 -608 988 -11 2 -22 1 -25 -2z">
      </path>
      <path id="ptn4jB9sI"
        d="M16095 13653 c-475 -61 -970 -338 -1338 -748 -398 -443 -630 -896 -746 -1458 -55 -264 -66 -384 -66 -702 0 -318 11 -438 66 -703 189 -913 721 -1739 1419 -2203 144 -96 311 -175 530 -252 295 -103 474 -134 740 -124 340 12 668 119 930 305 119 84 305 270 389 387 71 101 161 280 217 430 172 467 182 1002 27 1449 -76 220 -178 378 -356 556 -182 183 -345 280 -556 332 -122 31 -332 30 -446 -1 -268 -72 -495 -264 -619 -522 -71 -146 -89 -227 -90 -399 -1 -171 12 -230 78 -365 84 -171 241 -307 393 -341 100 -22 162 -15 254 31 78 38 111 64 162 130 29 36 29 38 7 22 -42 -30 -123 -65 -167 -72 -135 -21 -307 94 -398 266 -88 168 -85 339 10 534 74 151 166 247 300 313 118 58 183 64 361 32 221 -39 408 -174 523 -375 135 -236 189 -474 178 -785 -15 -431 -147 -769 -397 -1021 -163 -164 -324 -246 -576 -295 -127 -24 -338 -22 -473 5 -376 75 -714 271 -1037 602 -461 473 -756 1104 -851 1824 -21 160 -24 579 -5 730 121 957 711 1791 1441 2035 579 194 1310 20 2064 -489 56 -38 121 -83 145 -101 76 -57 44 -13 -90 126 -160 165 -289 270 -508 416 -446 296 -890 441 -1338 437 -81 -1 -160 -4 -177 -6z">
      </path>
      <path id="pTbWXwilN"
        d="M4485 11064 c-335 -19 -458 -28 -625 -45 -557 -56 -1121 -167 -1563 -308 -241 -78 -350 -120 -722 -284 -27 -12 -68 -36 -90 -52 -22 -17 -67 -49 -100 -72 -84 -57 -109 -86 -107 -126 3 -72 100 -505 167 -743 348 -1235 962 -2167 1782 -2701 63 -41 82 -59 78 -71 -3 -10 -49 -138 -103 -287 l-98 -270 -150 -13 c-555 -46 -1052 -237 -1473 -565 -137 -106 -357 -324 -462 -457 -475 -601 -677 -1380 -553 -2130 9 -52 33 -162 54 -245 125 -491 372 -913 748 -1277 415 -401 901 -639 1507 -735 157 -25 545 -25 705 0 595 94 1132 350 1528 731 l53 51 52 -60 c86 -101 267 -283 362 -364 778 -670 1838 -915 2838 -656 707 183 1312 598 1762 1210 404 548 628 1320 576 1990 -51 658 -271 1221 -679 1735 -94 118 -349 373 -460 460 -455 356 -917 562 -1466 655 -331 56 -649 59 -976 9 -58 -8 -113 -16 -122 -17 -14 -2 -54 75 -178 338 -88 186 -160 343 -160 348 0 5 38 53 83 106 572 659 1133 1651 1611 2848 72 179 76 194 64 220 -18 37 -82 78 -270 172 -605 304 -1484 511 -2493 587 -194 14 -968 27 -1120 18z m-212 -894 c313 -53 605 -202 826 -420 231 -228 389 -538 431 -847 19 -141 8 -401 -23 -533 -126 -532 -536 -952 -1077 -1100 -130 -36 -248 -50 -412 -50 -266 0 -475 48 -703 161 -418 207 -714 586 -812 1041 -14 65 -18 128 -18 293 0 193 3 219 27 323 141 591 622 1033 1238 1137 122 21 388 18 523 -5z m1605 -3927 c40 -86 71 -157 70 -157 -2 -1 -68 -45 -148 -98 -251 -167 -483 -368 -651 -564 l-72 -84 -66 63 c-216 206 -469 367 -847 538 l-31 14 54 150 c30 83 58 154 62 158 5 5 57 -1 117 -12 275 -51 632 -74 824 -52 240 28 536 117 582 176 11 14 23 25 27 25 4 0 40 -70 79 -157z m1461 -493 c726 -128 1359 -637 1654 -1330 131 -308 181 -562 181 -915 0 -307 -30 -494 -121 -760 -111 -320 -279 -595 -510 -834 l-102 -106 -175 90 c-97 49 -176 93 -176 97 0 4 26 21 58 37 215 109 463 336 604 556 109 168 195 380 240 585 20 92 22 133 22 335 0 253 -11 331 -74 527 -130 395 -425 749 -790 946 -422 227 -925 239 -1367 32 -661 -310 -1040 -1047 -918 -1785 18 -110 18 -107 2 -103 -7 2 -259 129 -560 283 l-547 279 0 39 c0 66 30 245 61 364 229 891 977 1563 1869 1678 158 21 490 13 649 -15z m-4484 -320 c570 -54 1073 -360 1404 -854 62 -92 147 -255 185 -352 22 -58 24 -75 16 -104 -6 -19 -22 -95 -35 -169 -14 -74 -27 -136 -29 -138 -2 -2 -18 43 -36 99 -72 231 -183 413 -359 589 -212 212 -455 341 -731 390 -93 16 -343 17 -430 0 -369 -69 -692 -277 -899 -580 -253 -371 -323 -854 -185 -1286 71 -221 185 -406 361 -586 90 -91 94 -98 81 -119 -7 -12 -153 -116 -325 -231 l-312 -209 -98 84 c-305 261 -523 614 -624 1013 -85 337 -75 757 27 1083 107 341 271 610 520 850 401 387 922 571 1469 520z">
      </path>
    </g>
  </g>
  <g id="lVjszKKviwis9oP942zFSP" fill="rgb(215,66,21)" style="transform: none;">
    <g>
      <path id="pDZbxP2ff"
        d="M8375 13730 c-36 -8 -130 -23 -570 -92 -77 -12 -141 -22 -142 -23 -2 -1 56 -100 128 -221 73 -120 139 -232 149 -249 9 -16 79 -133 155 -260 76 -126 146 -243 155 -260 9 -16 36 -61 60 -100 24 -38 51 -83 60 -100 10 -16 73 -122 140 -235 68 -113 131 -218 140 -235 10 -16 51 -86 92 -155 41 -69 182 -305 313 -525 131 -220 291 -488 355 -595 65 -107 299 -499 520 -870 222 -371 437 -731 478 -800 41 -69 82 -138 92 -155 9 -16 36 -61 60 -100 24 -38 51 -83 60 -100 9 -16 52 -88 95 -160 146 -243 171 -331 123 -437 -55 -119 -169 -191 -322 -205 l-89 -8 -143 -310 c-79 -170 -144 -313 -144 -316 0 -10 28 -19 90 -30 110 -20 147 -23 280 -23 113 0 154 5 253 28 64 15 120 32 123 37 3 5 12 9 20 9 22 0 160 69 227 114 213 141 379 389 433 646 13 59 18 125 17 215 -1 146 -19 246 -63 362 -25 65 -181 337 -378 658 -31 50 -60 99 -66 110 -13 23 -237 398 -484 810 -96 160 -182 304 -192 320 -9 17 -45 77 -80 135 -34 58 -70 119 -80 135 -9 17 -112 188 -227 380 -115 193 -357 598 -537 900 -181 303 -346 577 -366 610 -21 33 -91 150 -157 260 -465 779 -506 845 -521 844 -10 -1 -35 -5 -57 -9z">
      </path>
    </g>
  </g>
  <g id="l4rE2kEJBBKW95GlDp5zjaD" fill="rgb(62,67,71)" style="transform: none;">
    <g>
      <path id="p42ohFetP"
        d="M4485 11064 c-335 -19 -458 -28 -625 -45 -557 -56 -1121 -167 -1563 -308 -241 -78 -350 -120 -722 -284 -27 -12 -68 -36 -90 -52 -22 -17 -67 -49 -100 -72 -84 -57 -109 -86 -107 -126 3 -72 100 -505 167 -743 348 -1235 962 -2167 1782 -2701 63 -41 82 -59 78 -71 -3 -10 -49 -138 -103 -287 l-98 -270 -150 -13 c-555 -46 -1052 -237 -1473 -565 -137 -106 -357 -324 -462 -457 -475 -601 -677 -1380 -553 -2130 9 -52 33 -162 54 -245 125 -491 372 -913 748 -1277 415 -401 901 -639 1507 -735 157 -25 545 -25 705 0 595 94 1132 350 1528 731 l53 51 52 -60 c86 -101 267 -283 362 -364 778 -670 1838 -915 2838 -656 562 145 1043 426 1457 851 394 404 650 858 785 1389 75 294 89 413 89 755 0 251 -3 315 -21 430 -76 481 -226 879 -477 1260 -121 184 -230 317 -400 486 -258 258 -496 429 -821 589 -225 111 -388 172 -620 230 -254 64 -427 87 -701 93 -236 5 -382 -4 -572 -35 -56 -9 -104 -14 -106 -12 -1 2 -76 160 -165 350 l-163 347 107 123 c542 627 1073 1558 1556 2727 60 145 109 276 109 291 0 42 -24 66 -119 121 -603 345 -1552 584 -2646 666 -194 14 -968 27 -1120 18z m-212 -894 c313 -53 605 -202 826 -420 231 -228 389 -538 431 -847 19 -141 8 -401 -23 -533 -126 -532 -536 -952 -1077 -1100 -130 -36 -248 -50 -412 -50 -266 0 -475 48 -703 161 -418 207 -714 586 -812 1041 -14 65 -18 128 -18 293 0 193 3 219 27 323 141 591 622 1033 1238 1137 122 21 388 18 523 -5z m1612 -3927 l73 -158 -65 -38 c-242 -140 -554 -401 -744 -623 l-72 -84 -66 63 c-216 206 -469 367 -847 538 l-31 14 54 150 c30 83 58 154 62 158 5 5 57 -1 117 -12 274 -51 632 -74 824 -52 238 28 515 112 577 176 19 20 38 34 40 31 3 -3 38 -76 78 -163z m1345 -477 c431 -55 814 -225 1147 -510 535 -458 827 -1126 800 -1831 -4 -88 -13 -206 -22 -263 -70 -481 -305 -953 -640 -1282 l-76 -75 -174 89 c-96 49 -175 93 -175 97 0 5 26 22 58 38 215 109 463 336 604 556 109 168 195 380 240 585 20 92 22 133 22 335 0 253 -11 331 -74 527 -130 395 -425 749 -790 946 -422 227 -925 239 -1367 32 -661 -310 -1040 -1047 -918 -1785 17 -106 17 -105 7 -105 -6 0 -1081 546 -1111 564 -4 3 -2 54 5 113 79 655 447 1252 997 1620 275 184 627 315 947 352 122 14 397 12 520 -3z m-4364 -337 c685 -66 1285 -516 1563 -1171 l42 -97 -15 -58 c-8 -32 -24 -109 -36 -172 -11 -63 -22 -116 -24 -118 -2 -2 -18 43 -36 99 -72 231 -183 413 -359 589 -212 212 -455 341 -731 390 -93 16 -343 17 -430 0 -369 -69 -692 -277 -899 -580 -253 -371 -323 -854 -185 -1286 71 -222 185 -406 362 -587 l95 -97 -24 -30 c-13 -16 -160 -120 -326 -230 l-303 -201 -62 52 c-150 123 -315 311 -419 478 -450 725 -387 1690 153 2335 417 499 1006 746 1634 684z">
      </path>
      <path id="plt6aVMiO"
        d="M2832 9297 c-178 -256 -216 -667 -91 -984 34 -86 108 -228 152 -292 73 -107 226 -232 360 -294 29 -14 142 -51 252 -83 l200 -59 230 0 c213 1 238 3 341 27 555 131 940 519 1030 1038 24 139 15 396 -19 540 -41 171 -36 170 -90 23 -62 -170 -163 -375 -244 -497 -161 -242 -398 -410 -683 -483 -131 -33 -395 -50 -558 -36 -117 10 -122 12 -224 65 -136 71 -202 116 -286 193 -200 185 -314 474 -335 845 l-2 45 -33 -48z">
      </path>
    </g>
  </g>
  <g id="l3rTE2s3v2tGvZHkv6CU8Zw" fill="rgb(53,53,53)" style="transform: none;">
    <g style="transform: none;">
      <path id="p14zlLls31"
        d="M4485 11064 c-335 -19 -458 -28 -625 -45 -557 -56 -1121 -167 -1563 -308 -241 -78 -350 -120 -722 -284 -27 -12 -68 -36 -90 -52 -22 -17 -67 -49 -100 -72 -84 -57 -109 -86 -107 -126 3 -72 100 -505 167 -743 348 -1235 962 -2167 1782 -2701 63 -41 82 -59 78 -71 -3 -10 -49 -138 -103 -287 l-98 -270 -150 -13 c-555 -46 -1052 -237 -1473 -565 -137 -106 -357 -324 -462 -457 -475 -601 -677 -1380 -553 -2130 9 -52 33 -162 54 -245 125 -491 372 -913 748 -1277 415 -401 901 -639 1507 -735 157 -25 545 -25 705 0 595 94 1132 350 1528 731 l53 51 52 -60 c86 -101 267 -283 362 -364 778 -670 1838 -915 2838 -656 562 145 1043 426 1457 851 394 404 650 858 785 1389 75 294 89 413 89 755 0 251 -3 315 -21 430 -76 481 -226 879 -477 1260 -121 184 -230 317 -400 486 -258 258 -496 429 -821 589 -225 111 -388 172 -620 230 -254 64 -427 87 -701 93 -236 5 -382 -4 -572 -35 -56 -9 -104 -14 -106 -12 -1 2 -76 160 -165 350 l-163 347 107 123 c542 627 1073 1558 1556 2727 60 145 109 276 109 291 0 42 -24 66 -119 121 -603 345 -1552 584 -2646 666 -194 14 -968 27 -1120 18z m-212 -894 c313 -53 605 -202 826 -420 231 -228 389 -538 431 -847 19 -141 8 -401 -23 -533 -126 -532 -536 -952 -1077 -1100 -130 -36 -248 -50 -412 -50 -266 0 -475 48 -703 161 -418 207 -714 586 -812 1041 -14 65 -18 128 -18 293 0 193 3 219 27 323 141 591 622 1033 1238 1137 122 21 388 18 523 -5z m1612 -3927 l73 -158 -65 -38 c-242 -140 -554 -401 -744 -623 l-72 -84 -66 63 c-216 206 -469 367 -847 538 l-31 14 54 150 c30 83 58 154 62 158 5 5 57 -1 117 -12 274 -51 632 -74 824 -52 238 28 515 112 577 176 19 20 38 34 40 31 3 -3 38 -76 78 -163z m1285 -469 c357 -24 775 -185 1089 -419 507 -378 829 -937 907 -1575 29 -241 8 -623 -46 -825 -117 -436 -291 -751 -586 -1064 l-89 -94 -177 92 c-97 51 -181 98 -188 106 -6 8 -27 19 -46 25 -55 19 -2024 1027 -2048 1049 -23 21 -69 42 -101 45 -11 1 -45 15 -75 30 -30 16 -280 143 -555 284 -275 140 -501 256 -503 257 -7 6 29 243 53 349 167 746 731 1383 1444 1630 303 105 553 135 921 110z m-4282 -345 c557 -61 1056 -371 1375 -854 61 -92 146 -256 186 -357 l23 -57 -26 -113 c-13 -62 -28 -137 -32 -166 -4 -29 -14 -60 -23 -69 -8 -9 -31 -38 -51 -65 -31 -43 -159 -131 -1032 -708 -549 -363 -1006 -660 -1016 -660 -24 0 -102 -56 -102 -73 0 -6 -142 -106 -315 -221 l-314 -209 -69 56 c-163 134 -329 329 -439 515 -187 318 -273 640 -273 1025 0 242 28 427 97 636 43 133 153 358 231 476 312 469 816 783 1352 844 110 12 317 13 428 0z">
      </path>
    </g>
  </g>
</svg>